# xmcd CD database file
#
# Track frame offsets:
#	150
#	18165
#	41610
#	67581
#	85709
#	110304
#	139981
#	159916
#	180018
#	201753
#	219153
#	250563
#	273288
#
# Disc length: 3935 seconds
#
# Revision: 3
# Processed by: cddbd v1.5.2PL0 Copyright (c) Steve Scherf et al.
# Submitted via: CDex 1.51
#
DISCID=930f5d0d
DTITLE=[re:jazz] - INFRACom! presents [re:jazz]
DYEAR=2002
DGENRE=Jazz
TTITLE0=Quiet Nights
TTITLE1=Cupid and Orlando
TTITLE2=Release Your Mind
TTITLE3=Swoundosophy
TTITLE4=People Come Running
TTITLE5=Mental Strength
TTITLE6=Second Sight
TTITLE7=Style
TTITLE8=My Love Is Higher
TTITLE9=Torch Of Freedom
TTITLE10=Arena
TTITLE11=The Way I Swing
TTITLE12=La Mouche Lumiere
EXTD=YEAR: 2002
EXTT0=
EXTT1=
EXTT2=
EXTT3=
EXTT4=
EXTT5=
EXTT6=
EXTT7=
EXTT8=
EXTT9=
EXTT10=
EXTT11=
EXTT12=
PLAYORDER=
